<svg xmlns="http://www.w3.org/2000/svg" xmlns:xlink="http://www.w3.org/1999/xlink" viewBox="0 0 1197.42 30.74"><defs><style>.cls-1,.cls-2,.cls-5{fill:none;}.cls-1{clip-rule:evenodd;}.cls-3{clip-path:url(#clip-path);}.cls-4{fill-rule:evenodd;}.cls-5,.cls-8{stroke:#000;stroke-miterlimit:10;}.cls-5{stroke-linecap:square;stroke-width:0;}.cls-6{clip-path:url(#clip-path-2);}.cls-7{clip-path:url(#clip-path-3);}.cls-8{stroke-width:0.31px;}.cls-9{clip-path:url(#clip-path-4);}.cls-10{clip-path:url(#clip-path-5);}.cls-11{clip-path:url(#clip-path-6);}.cls-12{clip-path:url(#clip-path-7);}.cls-13{clip-path:url(#clip-path-8);}.cls-14{clip-path:url(#clip-path-9);}.cls-15{clip-path:url(#clip-path-10);}.cls-16{clip-path:url(#clip-path-11);}.cls-17{clip-path:url(#clip-path-12);}.cls-18{clip-path:url(#clip-path-13);}.cls-19{clip-path:url(#clip-path-14);}.cls-20{clip-path:url(#clip-path-15);}.cls-21{clip-path:url(#clip-path-16);}.cls-22{clip-path:url(#clip-path-17);}.cls-23{clip-path:url(#clip-path-18);}.cls-24{clip-path:url(#clip-path-19);}.cls-25{clip-path:url(#clip-path-20);}.cls-26{clip-path:url(#clip-path-21);}.cls-27{clip-path:url(#clip-path-22);}.cls-28{clip-path:url(#clip-path-23);}.cls-29{clip-path:url(#clip-path-24);}.cls-30{clip-path:url(#clip-path-25);}.cls-31{clip-path:url(#clip-path-26);}.cls-32{clip-path:url(#clip-path-27);}.cls-33{clip-path:url(#clip-path-28);}.cls-34{clip-path:url(#clip-path-29);}.cls-35{clip-path:url(#clip-path-30);}.cls-36{clip-path:url(#clip-path-31);}.cls-37{clip-path:url(#clip-path-32);}.cls-38{clip-path:url(#clip-path-33);}.cls-39{clip-path:url(#clip-path-34);}.cls-40{clip-path:url(#clip-path-35);}.cls-41{clip-path:url(#clip-path-36);}.cls-42{clip-path:url(#clip-path-37);}.cls-43{clip-path:url(#clip-path-38);}.cls-44{clip-path:url(#clip-path-39);}.cls-45{clip-path:url(#clip-path-40);}.cls-46{clip-path:url(#clip-path-41);}.cls-47{clip-path:url(#clip-path-42);}.cls-48{clip-path:url(#clip-path-43);}.cls-49{clip-path:url(#clip-path-44);}.cls-50{clip-path:url(#clip-path-45);}.cls-51{clip-path:url(#clip-path-46);}.cls-52{clip-path:url(#clip-path-47);}.cls-53{clip-path:url(#clip-path-48);}.cls-54{clip-path:url(#clip-path-49);}.cls-55{clip-path:url(#clip-path-50);}.cls-56{clip-path:url(#clip-path-51);}</style><clipPath id="clip-path"><polygon class="cls-1" points="0.78 0 1196.64 0 1196.64 31.08 0.78 31.08 0.78 0 0.78 0"/></clipPath><clipPath id="clip-path-2"><polygon class="cls-1" points="1.56 31.08 1196.64 31.08 1196.64 0.78 1.56 0.78 1.56 31.08 1.56 31.08"/></clipPath><clipPath id="clip-path-3"><rect class="cls-2" x="1.56" y="0.78" width="1195.09" height="30.3"/></clipPath><clipPath id="clip-path-4"><polygon class="cls-1" points="39.68 31.08 73.14 31.08 73.14 14.76 39.68 14.76 39.68 31.08 39.68 31.08"/></clipPath><clipPath id="clip-path-5"><rect class="cls-2" x="39.68" y="14.76" width="33.46" height="16.31"/></clipPath><clipPath id="clip-path-6"><polygon class="cls-1" points="87.14 31.08 120.6 31.08 120.6 14.76 87.14 14.76 87.14 31.08 87.14 31.08"/></clipPath><clipPath id="clip-path-7"><rect class="cls-2" x="87.14" y="14.76" width="33.46" height="16.31"/></clipPath><clipPath id="clip-path-8"><polygon class="cls-1" points="139.27 31.08 172.73 31.08 172.73 14.76 139.27 14.76 139.27 31.08 139.27 31.08"/></clipPath><clipPath id="clip-path-9"><rect class="cls-2" x="139.27" y="14.76" width="33.46" height="16.31"/></clipPath><clipPath id="clip-path-10"><polygon class="cls-1" points="188.29 31.08 221.75 31.08 221.75 14.76 188.29 14.76 188.29 31.08 188.29 31.08"/></clipPath><clipPath id="clip-path-11"><rect class="cls-2" x="188.29" y="14.76" width="33.46" height="16.31"/></clipPath><clipPath id="clip-path-12"><polygon class="cls-1" points="238.08 31.08 271.54 31.08 271.54 14.76 238.08 14.76 238.08 31.08 238.08 31.08"/></clipPath><clipPath id="clip-path-13"><rect class="cls-2" x="238.08" y="14.76" width="33.46" height="16.31"/></clipPath><clipPath id="clip-path-14"><polygon class="cls-1" points="287.1 31.08 320.56 31.08 320.56 14.76 287.1 14.76 287.1 31.08 287.1 31.08"/></clipPath><clipPath id="clip-path-15"><rect class="cls-2" x="287.1" y="14.76" width="33.46" height="16.31"/></clipPath><clipPath id="clip-path-16"><polygon class="cls-1" points="337.67 31.08 371.13 31.08 371.13 14.76 337.67 14.76 337.67 31.08 337.67 31.08"/></clipPath><clipPath id="clip-path-17"><rect class="cls-2" x="337.67" y="14.76" width="33.46" height="16.31"/></clipPath><clipPath id="clip-path-18"><polygon class="cls-1" points="386.69 31.08 420.15 31.08 420.15 14.76 386.69 14.76 386.69 31.08 386.69 31.08"/></clipPath><clipPath id="clip-path-19"><rect class="cls-2" x="386.69" y="14.76" width="33.46" height="16.31"/></clipPath><clipPath id="clip-path-20"><polygon class="cls-1" points="436.49 31.08 469.94 31.08 469.94 14.76 436.49 14.76 436.49 31.08 436.49 31.08"/></clipPath><clipPath id="clip-path-21"><rect class="cls-2" x="436.49" y="14.76" width="33.46" height="16.31"/></clipPath><clipPath id="clip-path-22"><polygon class="cls-1" points="487.06 31.08 520.52 31.08 520.52 14.76 487.06 14.76 487.06 31.08 487.06 31.08"/></clipPath><clipPath id="clip-path-23"><rect class="cls-2" x="487.06" y="14.76" width="33.46" height="16.31"/></clipPath><clipPath id="clip-path-24"><polygon class="cls-1" points="536.08 31.08 569.53 31.08 569.53 14.76 536.08 14.76 536.08 31.08 536.08 31.08"/></clipPath><clipPath id="clip-path-25"><rect class="cls-2" x="536.08" y="14.76" width="33.46" height="16.31"/></clipPath><clipPath id="clip-path-26"><polygon class="cls-1" points="585.87 31.08 619.33 31.08 619.33 14.76 585.87 14.76 585.87 31.08 585.87 31.08"/></clipPath><clipPath id="clip-path-27"><rect class="cls-2" x="585.87" y="14.76" width="33.46" height="16.31"/></clipPath><clipPath id="clip-path-28"><polygon class="cls-1" points="634.89 31.08 668.35 31.08 668.35 14.76 634.89 14.76 634.89 31.08 634.89 31.08"/></clipPath><clipPath id="clip-path-29"><rect class="cls-2" x="634.89" y="14.76" width="33.46" height="16.31"/></clipPath><clipPath id="clip-path-30"><polygon class="cls-1" points="684.68 31.08 718.14 31.08 718.14 14.76 684.68 14.76 684.68 31.08 684.68 31.08"/></clipPath><clipPath id="clip-path-31"><rect class="cls-2" x="684.69" y="14.76" width="33.46" height="16.31"/></clipPath><clipPath id="clip-path-32"><polygon class="cls-1" points="734.48 31.08 767.94 31.08 767.94 14.76 734.48 14.76 734.48 31.08 734.48 31.08"/></clipPath><clipPath id="clip-path-33"><rect class="cls-2" x="734.48" y="14.76" width="33.46" height="16.31"/></clipPath><clipPath id="clip-path-34"><polygon class="cls-1" points="784.28 31.08 817.73 31.08 817.73 14.76 784.28 14.76 784.28 31.08 784.28 31.08"/></clipPath><clipPath id="clip-path-35"><rect class="cls-2" x="784.28" y="14.76" width="33.46" height="16.31"/></clipPath><clipPath id="clip-path-36"><polygon class="cls-1" points="837.96 31.08 871.42 31.08 871.42 14.76 837.96 14.76 837.96 31.08 837.96 31.08"/></clipPath><clipPath id="clip-path-37"><rect class="cls-2" x="837.96" y="14.76" width="33.46" height="16.31"/></clipPath><clipPath id="clip-path-38"><polygon class="cls-1" points="887.76 31.08 921.21 31.08 921.21 14.76 887.76 14.76 887.76 31.08 887.76 31.08"/></clipPath><clipPath id="clip-path-39"><rect class="cls-2" x="887.76" y="14.76" width="33.46" height="16.31"/></clipPath><clipPath id="clip-path-40"><polygon class="cls-1" points="936 31.08 969.45 31.08 969.45 14.76 936 14.76 936 31.08 936 31.08"/></clipPath><clipPath id="clip-path-41"><rect class="cls-2" x="936" y="14.76" width="33.46" height="16.31"/></clipPath><clipPath id="clip-path-42"><polygon class="cls-1" points="986.57 31.08 1020.02 31.08 1020.02 14.76 986.57 14.76 986.57 31.08 986.57 31.08"/></clipPath><clipPath id="clip-path-43"><rect class="cls-2" x="986.57" y="14.76" width="33.46" height="16.31"/></clipPath><clipPath id="clip-path-44"><polygon class="cls-1" points="1035.59 31.08 1069.04 31.08 1069.04 14.76 1035.59 14.76 1035.59 31.08 1035.59 31.08"/></clipPath><clipPath id="clip-path-45"><rect class="cls-2" x="1035.59" y="14.76" width="33.46" height="16.31"/></clipPath><clipPath id="clip-path-46"><polygon class="cls-1" points="1086.16 31.08 1119.62 31.08 1119.62 14.76 1086.16 14.76 1086.16 31.08 1086.16 31.08"/></clipPath><clipPath id="clip-path-47"><rect class="cls-2" x="1086.16" y="14.76" width="33.46" height="16.31"/></clipPath><clipPath id="clip-path-48"><polygon class="cls-1" points="1135.95 31.08 1169.41 31.08 1169.41 14.76 1135.95 14.76 1135.95 31.08 1135.95 31.08"/></clipPath><clipPath id="clip-path-49"><rect class="cls-2" x="1135.95" y="14.76" width="33.46" height="16.31"/></clipPath><clipPath id="clip-path-50"><polygon class="cls-1" points="1181.08 31.08 1196.64 31.08 1196.64 14.76 1181.08 14.76 1181.08 31.08 1181.08 31.08"/></clipPath><clipPath id="clip-path-51"><rect class="cls-2" x="1181.08" y="14.76" width="15.56" height="16.31"/></clipPath></defs><title>Timescalefull</title><g id="Layer_2" data-name="Layer 2"><g id="Layer_1-2" data-name="Layer 1"><g class="cls-3"><polyline class="cls-4" points="2.33 13.98 2.33 15.54 99.59 15.54 99.59 13.98 2.33 13.98"/><polyline class="cls-4" points="101.92 13.98 101.92 15.54 199.18 15.54 199.18 13.98 101.92 13.98"/><polyline class="cls-4" points="201.51 13.98 201.51 15.54 298.77 15.54 298.77 13.98 201.51 13.98"/><polyline class="cls-4" points="301.11 13.98 301.11 15.54 398.36 15.54 398.36 13.98 301.11 13.98"/><polyline class="cls-4" points="400.7 13.98 400.7 15.54 497.95 15.54 497.95 13.98 400.7 13.98"/><polyline class="cls-4" points="500.29 13.98 500.29 15.54 597.54 15.54 597.54 13.98 500.29 13.98"/><polyline class="cls-4" points="599.88 13.98 599.88 15.54 697.13 15.54 697.13 13.98 599.88 13.98"/><polyline class="cls-4" points="699.47 13.98 699.47 15.54 796.72 15.54 796.72 13.98 699.47 13.98"/><polyline class="cls-4" points="799.06 13.98 799.06 15.54 896.32 15.54 896.32 13.98 799.06 13.98"/><polyline class="cls-4" points="898.65 13.98 898.65 15.54 995.91 15.54 995.91 13.98 898.65 13.98"/><polyline class="cls-4" points="998.24 13.98 998.24 15.54 1095.5 15.54 1095.5 13.98 998.24 13.98"/><polyline class="cls-4" points="0 0 0 15.54 2.33 15.54 2.33 0 0 0"/><polyline class="cls-4" points="99.59 0 99.59 15.54 101.92 15.54 101.92 0 99.59 0"/><polyline class="cls-4" points="199.18 0 199.18 15.54 201.51 15.54 201.51 0 199.18 0"/><polyline class="cls-4" points="298.77 0 298.77 15.54 301.11 15.54 301.11 0 298.77 0"/><polyline class="cls-4" points="398.36 0 398.36 15.54 400.7 15.54 400.7 0 398.36 0"/><polyline class="cls-4" points="497.95 0 497.95 15.54 500.29 15.54 500.29 0 497.95 0"/><polyline class="cls-4" points="597.54 0 597.54 15.54 599.88 15.54 599.88 0 597.54 0"/><polyline class="cls-4" points="697.13 0 697.13 15.54 699.47 15.54 699.47 0 697.13 0"/><polyline class="cls-4" points="796.72 0 796.72 15.54 799.06 15.54 799.06 0 796.72 0"/><polyline class="cls-4" points="896.32 0 896.32 15.54 898.65 15.54 898.65 0 896.32 0"/><polyline class="cls-4" points="995.91 0 995.91 15.54 998.24 15.54 998.24 0 995.91 0"/><polyline class="cls-4" points="1095.5 0 1095.5 15.54 1097.83 15.54 1097.83 0 1095.5 0"/><polyline class="cls-4" points="1195.09 0 1195.09 15.54 1197.42 15.54 1197.42 0 1195.09 0"/><line class="cls-5" x1="50.57" y1="7.77" x2="50.57" y2="13.98"/><polyline class="cls-4" points="50.57 7.77 50.57 13.98 51.35 13.98 51.35 7.77 50.57 7.77"/><line class="cls-5" x1="150.16" y1="7.77" x2="150.16" y2="13.98"/><polyline class="cls-4" points="150.16 7.77 150.16 13.98 150.94 13.98 150.94 7.77 150.16 7.77"/><line class="cls-5" x1="249.75" y1="7.77" x2="249.75" y2="13.98"/><polyline class="cls-4" points="249.75 7.77 249.75 13.98 250.53 13.98 250.53 7.77 249.75 7.77"/><line class="cls-5" x1="349.34" y1="7.77" x2="349.34" y2="13.98"/><polyline class="cls-4" points="349.35 7.77 349.35 13.98 350.12 13.98 350.12 7.77 349.35 7.77"/><line class="cls-5" x1="448.94" y1="7.77" x2="448.94" y2="13.98"/><polyline class="cls-4" points="448.94 7.77 448.94 13.98 449.71 13.98 449.71 7.77 448.94 7.77"/><line class="cls-5" x1="548.53" y1="7.77" x2="548.53" y2="13.98"/><polyline class="cls-4" points="548.53 7.77 548.53 13.98 549.3 13.98 549.3 7.77 548.53 7.77"/><line class="cls-5" x1="648.12" y1="7.77" x2="648.12" y2="13.98"/><polyline class="cls-4" points="648.12 7.77 648.12 13.98 648.89 13.98 648.89 7.77 648.12 7.77"/><line class="cls-5" x1="747.71" y1="7.77" x2="747.71" y2="13.98"/><polyline class="cls-4" points="747.71 7.77 747.71 13.98 748.49 13.98 748.49 7.77 747.71 7.77"/><line class="cls-5" x1="847.3" y1="7.77" x2="847.3" y2="13.98"/><polyline class="cls-4" points="847.3 7.77 847.3 13.98 848.08 13.98 848.08 7.77 847.3 7.77"/><line class="cls-5" x1="946.89" y1="7.77" x2="946.89" y2="13.98"/><polyline class="cls-4" points="946.89 7.77 946.89 13.98 947.67 13.98 947.67 7.77 946.89 7.77"/><line class="cls-5" x1="1046.48" y1="7.77" x2="1046.48" y2="13.98"/><polyline class="cls-4" points="1046.48 7.77 1046.48 13.98 1047.26 13.98 1047.26 7.77 1046.48 7.77"/><line class="cls-5" x1="1146.07" y1="7.77" x2="1146.07" y2="13.98"/><polyline class="cls-4" points="1146.07 7.77 1146.07 13.98 1146.85 13.98 1146.85 7.77 1146.07 7.77"/><polyline class="cls-4" points="1097.83 13.98 1097.83 15.54 1195.09 15.54 1195.09 13.98 1097.83 13.98"/></g><g class="cls-6"><g class="cls-7"><path class="cls-8" d="M3.83,30.59a2.88,2.88,0,0,1-.76-.09,1.79,1.79,0,0,1-.57-.28,1.13,1.13,0,0,1-.35-.46A1.54,1.54,0,0,1,2,29.13V28a1.18,1.18,0,0,1,.2-.74,1.4,1.4,0,0,1,.47-.44,1.73,1.73,0,0,1,.46-.2,1.64,1.64,0,0,1-.57-.36,1.35,1.35,0,0,1-.31-.49,1.58,1.58,0,0,1-.1-.56v-.92a2,2,0,0,1,.21-1A1.26,1.26,0,0,1,3,22.74a2.08,2.08,0,0,1,.85-.17H5.32a1.86,1.86,0,0,1,.83.17,1.08,1.08,0,0,1,.5.53,2.41,2.41,0,0,1,.17,1v.92a1.54,1.54,0,0,1-.06.43,1.46,1.46,0,0,1-.18.38,1.67,1.67,0,0,1-.28.31,1.36,1.36,0,0,1-.37.21,1.14,1.14,0,0,1,.56.24,1.44,1.44,0,0,1,.36.48,1.66,1.66,0,0,1,.12.64v1.28a1.51,1.51,0,0,1-.19.8,1.3,1.3,0,0,1-.57.49,2.24,2.24,0,0,1-.91.17Zm0-.24H5.3a1.66,1.66,0,0,0,1-.29,1.1,1.1,0,0,0,.36-.9V27.91a1.22,1.22,0,0,0-.33-1,1.79,1.79,0,0,0-1.15-.28H3.82a2,2,0,0,0-.44.06,2.07,2.07,0,0,0-.52.2,1.38,1.38,0,0,0-.41.39,1.07,1.07,0,0,0-.16.61v1.25a1,1,0,0,0,.45.92A2.1,2.1,0,0,0,3.83,30.35Zm0-3.94H5.23A1.37,1.37,0,0,0,6,26.22a1.3,1.3,0,0,0,.56-1v-1a1.61,1.61,0,0,0-.31-1.12,1.2,1.2,0,0,0-.93-.33H3.83a1.37,1.37,0,0,0-1.07.36,1.59,1.59,0,0,0-.32,1.09v1a1.18,1.18,0,0,0,.34.83A1.35,1.35,0,0,0,3.82,26.41Z"/></g></g><g class="cls-9"><g class="cls-10"><path class="cls-8" d="M50.79,30l-1,0c-.38,0-.7,0-1,0v-.18h2a2,2,0,0,0,1.67-.88,4.62,4.62,0,0,0,.64-2.72l-.88,0-.94,0h-.71a5.38,5.38,0,0,1-1.19-.12,1.57,1.57,0,0,1-.82-.45,1.42,1.42,0,0,1-.3-1V23.6a1.71,1.71,0,0,1,.25-1,1.45,1.45,0,0,1,.65-.5,2.43,2.43,0,0,1,.86-.16h1.29a1.94,1.94,0,0,1,.83.18,1.54,1.54,0,0,1,.64.63A3.79,3.79,0,0,1,53.31,24a11.31,11.31,0,0,1,.15,2,7.51,7.51,0,0,1-.18,1.74A3.62,3.62,0,0,1,52.76,29a2.28,2.28,0,0,1-.84.74A2.57,2.57,0,0,1,50.79,30Zm-.13-4H53.2a10.77,10.77,0,0,0-.13-1.87A3.53,3.53,0,0,0,52.71,23a1.4,1.4,0,0,0-.56-.59,1.58,1.58,0,0,0-.74-.17H50.12a2.5,2.5,0,0,0-.74.11,1,1,0,0,0-.55.39,1.42,1.42,0,0,0-.22.86V24.7a1.22,1.22,0,0,0,.26.84,1.31,1.31,0,0,0,.71.37A5,5,0,0,0,50.66,26Z"/></g></g><g class="cls-11"><g class="cls-12"><path class="cls-8" d="M97.36,30V22.22l-1.83.67v-.18l1.83-.78h.26V30Z"/><path class="cls-8" d="M101.73,30a2.51,2.51,0,0,1-.92-.17,1.52,1.52,0,0,1-.7-.55,1.88,1.88,0,0,1-.26-1V23.71a1.87,1.87,0,0,1,.25-1,1.6,1.6,0,0,1,.68-.58,2.31,2.31,0,0,1,1-.2h1.46a2,2,0,0,1,1.06.24,1.33,1.33,0,0,1,.59.63,2.11,2.11,0,0,1,.18.89v4.51a1.62,1.62,0,0,1-.51,1.36,2.09,2.09,0,0,1-1.32.4Zm0-.24h1.46a1.56,1.56,0,0,0,1.21-.41,1.65,1.65,0,0,0,.36-1.11V23.71a1.54,1.54,0,0,0-.4-1.13,1.59,1.59,0,0,0-1.17-.39h-1.46a1.69,1.69,0,0,0-1.17.4,1.44,1.44,0,0,0-.45,1.12v4.51a1.39,1.39,0,0,0,.45,1.13A1.69,1.69,0,0,0,101.73,29.74Z"/></g></g><g class="cls-13"><g class="cls-14"><path class="cls-8" d="M149.48,30V22.22l-1.83.67v-.18l1.83-.78h.27V30Z"/><path class="cls-8" d="M153.37,30V22.22l-1.83.67v-.18l1.83-.78h.26V30Z"/></g></g><g class="cls-15"><g class="cls-16"><path class="cls-8" d="M198.5,30V22.22l-1.83.67v-.18l1.83-.78h.26V30Z"/><path class="cls-8" d="M200.63,30v-.24l3.19-3a6.57,6.57,0,0,0,.87-1,2.62,2.62,0,0,0,.45-.9,3.59,3.59,0,0,0,.14-1,2,2,0,0,0-.18-.85,1.27,1.27,0,0,0-.64-.61,3.24,3.24,0,0,0-1.36-.23H201V22l1.06-.05,1.13,0a3.19,3.19,0,0,1,1.41.26,1.58,1.58,0,0,1,.73.69,2.33,2.33,0,0,1,.22,1,3.27,3.27,0,0,1-.16,1.06,3.36,3.36,0,0,1-.49,1,6.53,6.53,0,0,1-.9,1l-3,2.8h4.83V30Z"/></g></g><g class="cls-17"><g class="cls-18"><path class="cls-8" d="M248.3,30V22.22l-1.83.67v-.18l1.83-.78h.26V30Z"/><path class="cls-8" d="M253.06,30h-1.58L250.29,30v-.17H253a3.48,3.48,0,0,0,.93-.13,1.35,1.35,0,0,0,.7-.47,1.55,1.55,0,0,0,.27-1v-.69a1.31,1.31,0,0,0-.26-.85,1.48,1.48,0,0,0-.64-.44,2.31,2.31,0,0,0-.76-.14L251.16,26v-.15l2.11-.07a2,2,0,0,0,1.1-.32,1.1,1.1,0,0,0,.44-1v-.75a1.44,1.44,0,0,0-.48-1.15,2.08,2.08,0,0,0-1.38-.41h-2.31V22l1-.05L253,22a2.5,2.5,0,0,1,1.18.24,1.51,1.51,0,0,1,.67.65,1.94,1.94,0,0,1,.21.91v.75a1.48,1.48,0,0,1-.15.7,1.2,1.2,0,0,1-.36.44,1.4,1.4,0,0,1-.43.23,1.1,1.1,0,0,1-.33.08,2.54,2.54,0,0,1,.37.12,1.94,1.94,0,0,1,.48.27,1.44,1.44,0,0,1,.56,1.2v.69a1.63,1.63,0,0,1-.56,1.35A2.41,2.41,0,0,1,253.06,30Z"/></g></g><g class="cls-19"><g class="cls-20"><path class="cls-8" d="M297.32,30V22.22l-1.83.67v-.18l1.83-.78h.26V30Z"/><path class="cls-8" d="M303.19,30V27.67h-4l-.11-.25,3.34-5.4h.27l-3.34,5.41h3.81V24.85l.09-.6h.17v3.18h1.31v.18l-1.31.06V30Z"/></g></g><g class="cls-21"><g class="cls-22"><path class="cls-8" d="M347.89,30V22.22l-1.83.67v-.18l1.83-.78h.26V30Z"/><path class="cls-8" d="M353.25,30h-1.53c-.48,0-.9,0-1.24-.05v-.18h2.75a2.9,2.9,0,0,0,1-.18,1.76,1.76,0,0,0,.76-.54,1.44,1.44,0,0,0,.29-.91V27a1.44,1.44,0,0,0-.44-1.1,1.87,1.87,0,0,0-1.3-.4h-1a1.56,1.56,0,0,0-1,.28,1.33,1.33,0,0,0-.5.88h-.24L351,22h4.3v.24h-4.06L351.09,26a1.32,1.32,0,0,1,.48-.51,1.77,1.77,0,0,1,1-.24h1a2.32,2.32,0,0,1,1.07.22,1.68,1.68,0,0,1,.68.61,1.65,1.65,0,0,1,.24.89v1.18a1.65,1.65,0,0,1-.32,1,2,2,0,0,1-.83.62A3.13,3.13,0,0,1,353.25,30Z"/></g></g><g class="cls-23"><g class="cls-24"><path class="cls-8" d="M396.91,30V22.22l-1.83.67v-.18l1.83-.78h.26V30Z"/><path class="cls-8" d="M401.38,30a1.89,1.89,0,0,1-.82-.18,1.6,1.6,0,0,1-.65-.62,3.87,3.87,0,0,1-.42-1.25,11.15,11.15,0,0,1-.15-2,8,8,0,0,1,.17-1.74,3.66,3.66,0,0,1,.53-1.23,2.19,2.19,0,0,1,.84-.74A2.4,2.4,0,0,1,402,22l1,0,1,0v.17h-2a2,2,0,0,0-1.67.88,4.65,4.65,0,0,0-.64,2.72l.88,0,.94,0h.7a5.32,5.32,0,0,1,1.19.12,1.53,1.53,0,0,1,.82.45,1.39,1.39,0,0,1,.3,1v1.1a1.66,1.66,0,0,1-.24,1,1.36,1.36,0,0,1-.65.51,2.47,2.47,0,0,1-.86.15Zm0-.24h1.3a2.43,2.43,0,0,0,.73-.1,1,1,0,0,0,.56-.4,1.48,1.48,0,0,0,.21-.86V27.27a1.08,1.08,0,0,0-1-1.21,5.77,5.77,0,0,0-1.09-.09H399.6a12.11,12.11,0,0,0,.12,1.87,3.63,3.63,0,0,0,.36,1.15,1.4,1.4,0,0,0,.56.59A1.64,1.64,0,0,0,401.38,29.75Z"/></g></g><g class="cls-25"><g class="cls-26"><path class="cls-8" d="M446.7,30V22.22l-1.83.67v-.18l1.83-.78H447V30Z"/><path class="cls-8" d="M450,30l3.14-7.7h-4.53V22h4.66l.18.25L450.31,30Z"/></g></g><g class="cls-27"><g class="cls-28"><path class="cls-8" d="M497.27,30V22.22l-1.83.67v-.18l1.83-.78h.26V30Z"/><path class="cls-8" d="M501.65,30a3,3,0,0,1-.77-.09,1.73,1.73,0,0,1-.56-.28,1.16,1.16,0,0,1-.36-.46,1.54,1.54,0,0,1-.12-.63V27.34a1.18,1.18,0,0,1,.21-.74,1.47,1.47,0,0,1,.46-.44A1.54,1.54,0,0,1,501,26a1.71,1.71,0,0,1-.57-.37,1.38,1.38,0,0,1-.32-.49,1.77,1.77,0,0,1-.09-.56v-.92a2,2,0,0,1,.21-1,1.26,1.26,0,0,1,.59-.53,2.08,2.08,0,0,1,.85-.17h1.48a1.87,1.87,0,0,1,.84.17,1.08,1.08,0,0,1,.5.53,2.41,2.41,0,0,1,.17,1v.92a1.54,1.54,0,0,1-.06.43,1.46,1.46,0,0,1-.18.38,1.42,1.42,0,0,1-.29.31,1.12,1.12,0,0,1-.37.21,1.14,1.14,0,0,1,.57.24,1.3,1.3,0,0,1,.35.48,1.5,1.5,0,0,1,.13.64v1.28a1.51,1.51,0,0,1-.2.8,1.28,1.28,0,0,1-.56.49,2.24,2.24,0,0,1-.91.17Zm0-.24h1.47a1.66,1.66,0,0,0,1.05-.29,1.1,1.1,0,0,0,.36-.9V27.3a1.22,1.22,0,0,0-.33-1,1.81,1.81,0,0,0-1.15-.28h-1.41a2.08,2.08,0,0,0-1,.26,1.38,1.38,0,0,0-.41.39,1.07,1.07,0,0,0-.16.61v1.25a1,1,0,0,0,.45.92A2.07,2.07,0,0,0,501.65,29.74Zm0-3.94h1.41a1.32,1.32,0,0,0,.76-.19,1.16,1.16,0,0,0,.43-.48,1.19,1.19,0,0,0,.14-.52v-1a1.68,1.68,0,0,0-.31-1.12,1.22,1.22,0,0,0-.94-.33h-1.48a1.37,1.37,0,0,0-1.07.36,1.54,1.54,0,0,0-.32,1.09v1a1.18,1.18,0,0,0,.34.83A1.35,1.35,0,0,0,501.64,25.8Z"/></g></g><g class="cls-29"><g class="cls-30"><path class="cls-8" d="M546.29,30V22.22l-1.83.67v-.18l1.83-.78h.26V30Z"/><path class="cls-8" d="M551.07,30l-1,0c-.38,0-.71,0-1,0v-.18h2a2,2,0,0,0,1.67-.88,4.62,4.62,0,0,0,.64-2.72l-.88,0-.94,0H551a5.38,5.38,0,0,1-1.19-.12,1.57,1.57,0,0,1-.82-.45,1.42,1.42,0,0,1-.3-1V23.6a1.71,1.71,0,0,1,.25-1,1.45,1.45,0,0,1,.65-.5,2.43,2.43,0,0,1,.86-.16h1.29a1.86,1.86,0,0,1,.82.18,1.56,1.56,0,0,1,.65.63,3.79,3.79,0,0,1,.43,1.24,11.31,11.31,0,0,1,.15,2,7.51,7.51,0,0,1-.18,1.74A3.62,3.62,0,0,1,553,29a2.28,2.28,0,0,1-.84.74A2.57,2.57,0,0,1,551.07,30Zm-.13-4h2.54a10.77,10.77,0,0,0-.13-1.87A3.53,3.53,0,0,0,553,23a1.4,1.4,0,0,0-.56-.59,1.61,1.61,0,0,0-.74-.17H550.4a2.5,2.5,0,0,0-.74.11,1.1,1.1,0,0,0-.56.39,1.5,1.5,0,0,0-.21.86V24.7a1.22,1.22,0,0,0,.26.84,1.31,1.31,0,0,0,.71.37A5,5,0,0,0,550.94,26Z"/></g></g><g class="cls-31"><g class="cls-32"><path class="cls-8" d="M594.33,30v-.24l3.18-3a6.7,6.7,0,0,0,.88-1,3,3,0,0,0,.45-.9,3.6,3.6,0,0,0,.13-1,2.11,2.11,0,0,0-.17-.85,1.27,1.27,0,0,0-.64-.61,3.29,3.29,0,0,0-1.37-.23h-2.1V22l1.06-.05,1.13,0a3.22,3.22,0,0,1,1.41.26,1.58,1.58,0,0,1,.73.69,2.33,2.33,0,0,1,.21,1,3.57,3.57,0,0,1-.15,1.06,3.36,3.36,0,0,1-.49,1,7.1,7.1,0,0,1-.9,1l-3,2.8h4.84V30Z"/><path class="cls-8" d="M602.8,30a2.6,2.6,0,0,1-.93-.17,1.54,1.54,0,0,1-.69-.55,1.88,1.88,0,0,1-.26-1V23.71a1.87,1.87,0,0,1,.25-1,1.6,1.6,0,0,1,.68-.58,2.28,2.28,0,0,1,.95-.2h1.46a2.05,2.05,0,0,1,1.06.24,1.33,1.33,0,0,1,.59.63,2.11,2.11,0,0,1,.18.89v4.51a1.62,1.62,0,0,1-.52,1.36,2,2,0,0,1-1.31.4Zm0-.24h1.46a1.54,1.54,0,0,0,1.2-.41,1.65,1.65,0,0,0,.36-1.11V23.71a1.54,1.54,0,0,0-.39-1.13,1.59,1.59,0,0,0-1.17-.39H602.8a1.74,1.74,0,0,0-1.18.4,1.47,1.47,0,0,0-.44,1.12v4.51a1.42,1.42,0,0,0,.44,1.13A1.73,1.73,0,0,0,602.8,29.74Z"/></g></g><g class="cls-33"><g class="cls-34"><path class="cls-8" d="M643.36,30v-.24l3.18-3a6.57,6.57,0,0,0,.87-1,2.62,2.62,0,0,0,.45-.9,3.59,3.59,0,0,0,.14-1,2,2,0,0,0-.18-.85,1.23,1.23,0,0,0-.64-.61,3.24,3.24,0,0,0-1.36-.23h-2.11V22l1.06-.05,1.13,0a3.19,3.19,0,0,1,1.41.26,1.58,1.58,0,0,1,.73.69,2.33,2.33,0,0,1,.22,1,3.57,3.57,0,0,1-.15,1.06,3.68,3.68,0,0,1-.5,1,6.53,6.53,0,0,1-.9,1l-3,2.8h4.83V30Z"/><path class="cls-8" d="M651.34,30V22.22l-1.83.67v-.18l1.83-.78h.26V30Z"/></g></g><g class="cls-35"><g class="cls-36"><path class="cls-8" d="M693.14,30v-.24l3.18-3a6.16,6.16,0,0,0,.88-1,2.62,2.62,0,0,0,.45-.9,3.6,3.6,0,0,0,.13-1,2,2,0,0,0-.17-.85,1.27,1.27,0,0,0-.64-.61,3.24,3.24,0,0,0-1.36-.23H693.5V22l1.06-.05,1.13,0a3.19,3.19,0,0,1,1.41.26,1.58,1.58,0,0,1,.73.69,2.33,2.33,0,0,1,.22,1,3.27,3.27,0,0,1-.16,1.06,3.36,3.36,0,0,1-.49,1,6.53,6.53,0,0,1-.9,1l-3,2.8h4.83V30Z"/><path class="cls-8" d="M699.37,30v-.24l3.19-3a6.57,6.57,0,0,0,.87-1,2.62,2.62,0,0,0,.45-.9,3.59,3.59,0,0,0,.14-1,2,2,0,0,0-.18-.85,1.23,1.23,0,0,0-.64-.61,3.24,3.24,0,0,0-1.36-.23h-2.11V22l1.06-.05,1.13,0a3.19,3.19,0,0,1,1.41.26,1.58,1.58,0,0,1,.73.69,2.33,2.33,0,0,1,.22,1,3.27,3.27,0,0,1-.16,1.06,3.36,3.36,0,0,1-.49,1,6.53,6.53,0,0,1-.9,1l-3,2.8h4.83V30Z"/></g></g><g class="cls-37"><g class="cls-38"><path class="cls-8" d="M742.94,30v-.24l3.18-3a7.35,7.35,0,0,0,.88-1,3,3,0,0,0,.45-.9,3.6,3.6,0,0,0,.13-1,2.11,2.11,0,0,0-.17-.85,1.27,1.27,0,0,0-.64-.61,3.29,3.29,0,0,0-1.37-.23h-2.1V22l1.06-.05,1.13,0a3.22,3.22,0,0,1,1.41.26,1.58,1.58,0,0,1,.73.69,2.33,2.33,0,0,1,.21,1,3.57,3.57,0,0,1-.15,1.06,3.36,3.36,0,0,1-.49,1,7.1,7.1,0,0,1-.9,1l-3,2.8h4.84V30Z"/><path class="cls-8" d="M751.8,30h-1.58L749,30v-.17h2.75a3.46,3.46,0,0,0,.92-.13,1.35,1.35,0,0,0,.7-.47,1.55,1.55,0,0,0,.27-1v-.69a1.31,1.31,0,0,0-.26-.85,1.42,1.42,0,0,0-.64-.44,2.3,2.3,0,0,0-.75-.14L749.9,26v-.15l2.12-.07a2,2,0,0,0,1.09-.32,1.1,1.1,0,0,0,.44-1v-.75a1.44,1.44,0,0,0-.48-1.15,2.08,2.08,0,0,0-1.38-.41h-2.31V22l1-.05,1.39,0a2.57,2.57,0,0,1,1.19.24,1.53,1.53,0,0,1,.66.65,1.94,1.94,0,0,1,.21.91v.75a1.48,1.48,0,0,1-.15.7,1.31,1.31,0,0,1-.36.44,1.4,1.4,0,0,1-.43.23,1.1,1.1,0,0,1-.33.08,2.54,2.54,0,0,1,.37.12,1.94,1.94,0,0,1,.48.27,1.44,1.44,0,0,1,.56,1.2v.69a1.63,1.63,0,0,1-.56,1.35A2.41,2.41,0,0,1,751.8,30Z"/></g></g><g class="cls-39"><g class="cls-40"><path class="cls-8" d="M795,30a2.55,2.55,0,0,1-.92-.17,1.44,1.44,0,0,1-.69-.55,1.88,1.88,0,0,1-.26-1V23.71a1.79,1.79,0,0,1,.25-1,1.54,1.54,0,0,1,.68-.58A2.26,2.26,0,0,1,795,22h1.46a2.09,2.09,0,0,1,1.07.24,1.31,1.31,0,0,1,.58.63,2.11,2.11,0,0,1,.18.89v4.51a1.62,1.62,0,0,1-.51,1.36,2.06,2.06,0,0,1-1.32.4Zm0-.24h1.46a1.55,1.55,0,0,0,1.21-.41,1.65,1.65,0,0,0,.36-1.11V23.71a1.54,1.54,0,0,0-.39-1.13,1.61,1.61,0,0,0-1.18-.39H795a1.71,1.71,0,0,0-1.17.4,1.47,1.47,0,0,0-.44,1.12v4.51a1.42,1.42,0,0,0,.44,1.13A1.7,1.7,0,0,0,795,29.74Z"/></g></g><g class="cls-41"><g class="cls-42"><path class="cls-8" d="M848.18,30V22.22l-1.83.67v-.18l1.83-.78h.26V30Z"/></g></g><g class="cls-43"><g class="cls-44"><path class="cls-8" d="M896.21,30v-.24l3.19-3a6.57,6.57,0,0,0,.87-1,2.62,2.62,0,0,0,.45-.9,3.59,3.59,0,0,0,.14-1,2,2,0,0,0-.18-.85,1.23,1.23,0,0,0-.64-.61,3.24,3.24,0,0,0-1.36-.23h-2.11V22l1.06-.05,1.13,0a3.19,3.19,0,0,1,1.41.26,1.58,1.58,0,0,1,.73.69,2.33,2.33,0,0,1,.22,1A3.27,3.27,0,0,1,901,25a3.36,3.36,0,0,1-.49,1,6.53,6.53,0,0,1-.9,1l-3,2.8h4.83V30Z"/></g></g><g class="cls-45"><g class="cls-46"><path class="cls-8" d="M947.08,30h-1.57c-.48,0-.87,0-1.19-.05v-.17h2.74a3.41,3.41,0,0,0,.92-.13,1.31,1.31,0,0,0,.7-.47,1.55,1.55,0,0,0,.28-1v-.69a1.26,1.26,0,0,0-.27-.85,1.37,1.37,0,0,0-.64-.44,2.21,2.21,0,0,0-.75-.14L945.19,26v-.15l2.11-.07a2,2,0,0,0,1.1-.32,1.12,1.12,0,0,0,.44-1v-.75a1.44,1.44,0,0,0-.48-1.15,2.1,2.1,0,0,0-1.39-.41h-2.31V22l1-.05,1.4,0a2.5,2.5,0,0,1,1.18.24,1.62,1.62,0,0,1,.67.65,1.94,1.94,0,0,1,.21.91v.75a1.48,1.48,0,0,1-.15.7,1.44,1.44,0,0,1-.36.44,1.33,1.33,0,0,1-.44.23,1.1,1.1,0,0,1-.33.08,2.6,2.6,0,0,1,.38.12,1.89,1.89,0,0,1,.47.27,1.49,1.49,0,0,1,.41.48,1.59,1.59,0,0,1,.16.72v.69a1.66,1.66,0,0,1-.56,1.35A2.46,2.46,0,0,1,947.08,30Z"/></g></g><g class="cls-47"><g class="cls-48"><path class="cls-8" d="M998.76,30V27.67h-4l-.11-.25L998,22h.28L995,27.43h3.81V24.85l.09-.6H999v3.18h1.3v.18l-1.3.06V30Z"/></g></g><g class="cls-49"><g class="cls-50"><path class="cls-8" d="M1047.28,30h-1.53c-.49,0-.9,0-1.24-.05v-.18h2.74a2.86,2.86,0,0,0,1-.18,1.79,1.79,0,0,0,.77-.54,1.43,1.43,0,0,0,.28-.91V27a1.4,1.4,0,0,0-.44-1.1,1.86,1.86,0,0,0-1.3-.4h-1a1.59,1.59,0,0,0-1,.28,1.37,1.37,0,0,0-.5.88h-.23l.22-4.65h4.31v.24h-4.07l-.18,3.76a1.29,1.29,0,0,1,.47-.51,1.83,1.83,0,0,1,1-.24h1a2.32,2.32,0,0,1,1.07.22,1.6,1.6,0,0,1,.93,1.5v1.18a1.65,1.65,0,0,1-.32,1,2,2,0,0,1-.84.62A3.11,3.11,0,0,1,1047.28,30Z"/></g></g><g class="cls-51"><g class="cls-52"><path class="cls-8" d="M1097,30a1.89,1.89,0,0,1-.82-.18,1.6,1.6,0,0,1-.65-.62,3.87,3.87,0,0,1-.42-1.25,11.15,11.15,0,0,1-.15-2,7.39,7.39,0,0,1,.18-1.74,3.46,3.46,0,0,1,.52-1.23,2.19,2.19,0,0,1,.84-.74,2.4,2.4,0,0,1,1.12-.25l1,0,1,0v.17h-2a2,2,0,0,0-1.67.88,4.65,4.65,0,0,0-.64,2.72l.88,0,.94,0h.7a5.32,5.32,0,0,1,1.19.12,1.53,1.53,0,0,1,.82.45,1.39,1.39,0,0,1,.3,1v1.1a1.66,1.66,0,0,1-.24,1,1.36,1.36,0,0,1-.65.51,2.47,2.47,0,0,1-.86.15Zm0-.24h1.3a2.43,2.43,0,0,0,.73-.1,1,1,0,0,0,.56-.4,1.48,1.48,0,0,0,.21-.86V27.27a1.08,1.08,0,0,0-1-1.21,5.77,5.77,0,0,0-1.09-.09h-2.53a12.11,12.11,0,0,0,.12,1.87,3.9,3.9,0,0,0,.36,1.15,1.4,1.4,0,0,0,.56.59A1.64,1.64,0,0,0,1097,29.75Z"/></g></g><g class="cls-53"><g class="cls-54"><path class="cls-8" d="M1145.58,30l3.14-7.7h-4.53V22h4.66l.18.25L1145.89,30Z"/></g></g><g class="cls-55"><g class="cls-56"><path class="cls-8" d="M1191.79,30a3,3,0,0,1-.77-.09,1.9,1.9,0,0,1-.57-.28,1.23,1.23,0,0,1-.35-.46,1.54,1.54,0,0,1-.12-.63V27.34a1.25,1.25,0,0,1,.2-.74,1.4,1.4,0,0,1,.47-.44,1.5,1.5,0,0,1,.46-.19,1.66,1.66,0,0,1-.56-.37,1.26,1.26,0,0,1-.32-.49,1.54,1.54,0,0,1-.1-.56v-.92a2,2,0,0,1,.21-1,1.31,1.31,0,0,1,.59-.53,2.13,2.13,0,0,1,.86-.17h1.48a1.86,1.86,0,0,1,.83.17,1.08,1.08,0,0,1,.5.53,2.25,2.25,0,0,1,.17,1v.92a1.54,1.54,0,0,1-.06.43,1.46,1.46,0,0,1-.18.38,1.38,1.38,0,0,1-.28.31,1.23,1.23,0,0,1-.37.21,1.14,1.14,0,0,1,.56.24,1.22,1.22,0,0,1,.36.48,1.66,1.66,0,0,1,.12.64v1.28a1.51,1.51,0,0,1-.19.8,1.25,1.25,0,0,1-.57.49,2.22,2.22,0,0,1-.9.17Zm0-.24h1.47a1.65,1.65,0,0,0,1-.29,1.1,1.1,0,0,0,.36-.9V27.3a1.22,1.22,0,0,0-.33-1,1.78,1.78,0,0,0-1.15-.28h-1.4a2,2,0,0,0-.45.06,1.87,1.87,0,0,0-.51.2,1.31,1.31,0,0,0-.42.39,1.07,1.07,0,0,0-.16.61v1.25a1,1,0,0,0,.45.92A2.11,2.11,0,0,0,1191.79,29.74Zm0-3.94h1.4a1.35,1.35,0,0,0,.77-.19,1.3,1.3,0,0,0,.56-1v-1a1.63,1.63,0,0,0-.31-1.12,1.2,1.2,0,0,0-.93-.33h-1.48a1.41,1.41,0,0,0-1.08.36,1.59,1.59,0,0,0-.32,1.09v1a1.23,1.23,0,0,0,.34.83A1.38,1.38,0,0,0,1191.78,25.8Z"/></g></g></g></g></svg>