<svg xmlns="http://www.w3.org/2000/svg" xmlns:xlink="http://www.w3.org/1999/xlink" viewBox="0 0 319.78 28.39"><defs><style>.cls-1,.cls-2,.cls-5{fill:none;}.cls-1{clip-rule:evenodd;}.cls-3{clip-path:url(#clip-path);}.cls-4{fill-rule:evenodd;}.cls-13,.cls-5,.cls-8{stroke:#000;stroke-miterlimit:10;}.cls-5{stroke-linecap:square;stroke-width:0;}.cls-6{clip-path:url(#clip-path-2);}.cls-7{clip-path:url(#clip-path-3);}.cls-8{stroke-width:0.31px;}.cls-9{clip-path:url(#clip-path-4);}.cls-10{clip-path:url(#clip-path-5);}.cls-11{clip-path:url(#clip-path-6);}.cls-12{clip-path:url(#clip-path-7);}.cls-13{stroke-width:0.16px;}.cls-14{clip-path:url(#clip-path-8);}.cls-15{clip-path:url(#clip-path-9);}.cls-16{clip-path:url(#clip-path-10);}.cls-17{clip-path:url(#clip-path-11);}.cls-18{clip-path:url(#clip-path-12);}.cls-19{clip-path:url(#clip-path-13);}.cls-20{clip-path:url(#clip-path-14);}.cls-21{clip-path:url(#clip-path-15);}.cls-22{clip-path:url(#clip-path-16);}.cls-23{clip-path:url(#clip-path-17);}.cls-24{clip-path:url(#clip-path-18);}.cls-25{clip-path:url(#clip-path-19);}.cls-26{clip-path:url(#clip-path-20);}.cls-27{clip-path:url(#clip-path-21);}.cls-28{clip-path:url(#clip-path-22);}.cls-29{clip-path:url(#clip-path-23);}.cls-30{clip-path:url(#clip-path-24);}.cls-31{clip-path:url(#clip-path-25);}.cls-32{clip-path:url(#clip-path-26);}.cls-33{clip-path:url(#clip-path-27);}.cls-34{clip-path:url(#clip-path-28);}.cls-35{clip-path:url(#clip-path-29);}.cls-36{clip-path:url(#clip-path-30);}.cls-37{clip-path:url(#clip-path-31);}.cls-38{clip-path:url(#clip-path-32);}.cls-39{clip-path:url(#clip-path-33);}.cls-40{clip-path:url(#clip-path-34);}.cls-41{clip-path:url(#clip-path-35);}.cls-42{clip-path:url(#clip-path-36);}.cls-43{clip-path:url(#clip-path-37);}.cls-44{clip-path:url(#clip-path-38);}.cls-45{clip-path:url(#clip-path-39);}.cls-46{clip-path:url(#clip-path-40);}.cls-47{clip-path:url(#clip-path-41);}.cls-48{clip-path:url(#clip-path-42);}.cls-49{clip-path:url(#clip-path-43);}.cls-50{clip-path:url(#clip-path-44);}.cls-51{clip-path:url(#clip-path-45);}.cls-52{clip-path:url(#clip-path-46);}.cls-53{clip-path:url(#clip-path-47);}.cls-54{clip-path:url(#clip-path-48);}.cls-55{clip-path:url(#clip-path-49);}.cls-56{clip-path:url(#clip-path-50);}.cls-57{clip-path:url(#clip-path-51);}.cls-58{clip-path:url(#clip-path-52);}.cls-59{clip-path:url(#clip-path-53);}.cls-60{clip-path:url(#clip-path-54);}.cls-61{clip-path:url(#clip-path-55);}</style><clipPath id="clip-path" transform="translate(0 -1.55)"><polygon class="cls-1" points="0.78 0 319 0 319 17.09 0.78 17.09 0.78 0 0.78 0"/></clipPath><clipPath id="clip-path-2" transform="translate(0 -1.55)"><polygon class="cls-1" points="171.17 17.09 201.51 17.09 201.51 16.32 171.17 16.32 171.17 17.09 171.17 17.09"/></clipPath><clipPath id="clip-path-3" transform="translate(0 -1.55)"><rect class="cls-2" x="171.17" y="16.31" width="30.34" height="0.78"/></clipPath><clipPath id="clip-path-4" transform="translate(0 -1.55)"><polygon class="cls-1" points="201.51 17.09 231.86 17.09 231.86 16.32 201.51 16.32 201.51 17.09 201.51 17.09"/></clipPath><clipPath id="clip-path-5" transform="translate(0 -1.55)"><rect class="cls-2" x="201.52" y="16.31" width="30.34" height="0.78"/></clipPath><clipPath id="clip-path-6" transform="translate(0 -1.55)"><polygon class="cls-1" points="1.56 17.09 8.56 17.09 8.56 5.44 1.56 5.44 1.56 17.09 1.56 17.09"/></clipPath><clipPath id="clip-path-7" transform="translate(0 -1.55)"><rect class="cls-2" x="1.56" y="5.44" width="7" height="11.65"/></clipPath><clipPath id="clip-path-8" transform="translate(0 -1.55)"><polygon class="cls-1" points="17.12 16.32 47.46 16.32 47.46 5.44 17.12 5.44 17.12 16.32 17.12 16.32"/></clipPath><clipPath id="clip-path-9" transform="translate(0 -1.55)"><rect class="cls-2" x="17.12" y="5.44" width="30.34" height="10.88"/></clipPath><clipPath id="clip-path-10" transform="translate(0 -1.55)"><polygon class="cls-1" points="42.79 17.09 73.92 17.09 73.92 5.44 42.79 5.44 42.79 17.09 42.79 17.09"/></clipPath><clipPath id="clip-path-11" transform="translate(0 -1.55)"><rect class="cls-2" x="42.79" y="5.44" width="31.12" height="11.65"/></clipPath><clipPath id="clip-path-12" transform="translate(0 -1.55)"><polygon class="cls-1" points="69.25 17.09 100.37 17.09 100.37 5.44 69.25 5.44 69.25 17.09 69.25 17.09"/></clipPath><clipPath id="clip-path-13" transform="translate(0 -1.55)"><rect class="cls-2" x="69.25" y="5.44" width="31.12" height="11.65"/></clipPath><clipPath id="clip-path-14" transform="translate(0 -1.55)"><polygon class="cls-1" points="96.48 17.09 126.82 17.09 126.82 5.44 96.48 5.44 96.48 17.09 96.48 17.09"/></clipPath><clipPath id="clip-path-15" transform="translate(0 -1.55)"><rect class="cls-2" x="96.48" y="5.44" width="30.34" height="11.65"/></clipPath><clipPath id="clip-path-16" transform="translate(0 -1.55)"><polygon class="cls-1" points="122.15 17.09 153.28 17.09 153.28 5.44 122.15 5.44 122.15 17.09 122.15 17.09"/></clipPath><clipPath id="clip-path-17" transform="translate(0 -1.55)"><rect class="cls-2" x="122.15" y="5.44" width="31.12" height="11.65"/></clipPath><clipPath id="clip-path-18" transform="translate(0 -1.55)"><polygon class="cls-1" points="147.83 16.32 178.95 16.32 178.95 5.44 147.83 5.44 147.83 16.32 147.83 16.32"/></clipPath><clipPath id="clip-path-19" transform="translate(0 -1.55)"><rect class="cls-2" x="147.83" y="5.44" width="31.12" height="10.88"/></clipPath><clipPath id="clip-path-20" transform="translate(0 -1.55)"><polygon class="cls-1" points="175.06 17.09 206.18 17.09 206.18 5.44 175.06 5.44 175.06 17.09 175.06 17.09"/></clipPath><clipPath id="clip-path-21" transform="translate(0 -1.55)"><rect class="cls-2" x="175.06" y="5.44" width="31.12" height="11.65"/></clipPath><clipPath id="clip-path-22" transform="translate(0 -1.55)"><polygon class="cls-1" points="203.07 17.09 233.41 17.09 233.41 5.44 203.07 5.44 203.07 17.09 203.07 17.09"/></clipPath><clipPath id="clip-path-23" transform="translate(0 -1.55)"><rect class="cls-2" x="203.07" y="5.44" width="30.34" height="11.65"/></clipPath><clipPath id="clip-path-24" transform="translate(0 -1.55)"><polygon class="cls-1" points="229.53 17.09 260.65 17.09 260.65 5.44 229.53 5.44 229.53 17.09 229.53 17.09"/></clipPath><clipPath id="clip-path-25" transform="translate(0 -1.55)"><rect class="cls-2" x="229.53" y="5.44" width="31.12" height="11.65"/></clipPath><clipPath id="clip-path-26" transform="translate(0 -1.55)"><polygon class="cls-1" points="255.98 17.09 286.32 17.09 286.32 5.44 255.98 5.44 255.98 17.09 255.98 17.09"/></clipPath><clipPath id="clip-path-27" transform="translate(0 -1.55)"><rect class="cls-2" x="255.98" y="5.44" width="30.34" height="11.65"/></clipPath><clipPath id="clip-path-28" transform="translate(0 -1.55)"><polygon class="cls-1" points="282.43 17.09 313.56 17.09 313.56 5.44 282.43 5.44 282.43 17.09 282.43 17.09"/></clipPath><clipPath id="clip-path-29" transform="translate(0 -1.55)"><rect class="cls-2" x="282.43" y="5.44" width="31.12" height="11.65"/></clipPath><clipPath id="clip-path-30" transform="translate(0 -1.55)"><polygon class="cls-1" points="306.55 17.09 319 17.09 319 5.44 306.55 5.44 306.55 17.09 306.55 17.09"/></clipPath><clipPath id="clip-path-31" transform="translate(0 -1.55)"><rect class="cls-2" x="306.55" y="5.44" width="12.45" height="11.65"/></clipPath><clipPath id="clip-path-32" transform="translate(0 -1.55)"><polygon class="cls-1" points="5.45 16.32 19.45 16.32 19.45 5.44 5.45 5.44 5.45 16.32 5.45 16.32"/></clipPath><clipPath id="clip-path-33" transform="translate(0 -1.55)"><rect class="cls-2" x="5.45" y="5.44" width="14" height="10.88"/></clipPath><clipPath id="clip-path-34" transform="translate(0 -1.55)"><polygon class="cls-1" points="30.34 17.09 61.47 17.09 61.47 5.44 30.34 5.44 30.34 17.09 30.34 17.09"/></clipPath><clipPath id="clip-path-35" transform="translate(0 -1.55)"><rect class="cls-2" x="30.34" y="5.44" width="31.12" height="11.65"/></clipPath><clipPath id="clip-path-36" transform="translate(0 -1.55)"><polygon class="cls-1" points="56.8 17.09 87.14 17.09 87.14 5.44 56.8 5.44 56.8 17.09 56.8 17.09"/></clipPath><clipPath id="clip-path-37" transform="translate(0 -1.55)"><rect class="cls-2" x="56.8" y="5.44" width="30.34" height="11.65"/></clipPath><clipPath id="clip-path-38" transform="translate(0 -1.55)"><polygon class="cls-1" points="83.25 17.09 113.59 17.09 113.59 5.44 83.25 5.44 83.25 17.09 83.25 17.09"/></clipPath><clipPath id="clip-path-39" transform="translate(0 -1.55)"><rect class="cls-2" x="83.25" y="5.44" width="30.34" height="11.65"/></clipPath><clipPath id="clip-path-40" transform="translate(0 -1.55)"><polygon class="cls-1" points="109.7 17.09 140.05 17.09 140.05 5.44 109.7 5.44 109.7 17.09 109.7 17.09"/></clipPath><clipPath id="clip-path-41" transform="translate(0 -1.55)"><rect class="cls-2" x="109.71" y="5.44" width="30.34" height="11.65"/></clipPath><clipPath id="clip-path-42" transform="translate(0 -1.55)"><polygon class="cls-1" points="136.16 17.09 166.5 17.09 166.5 5.44 136.16 5.44 136.16 17.09 136.16 17.09"/></clipPath><clipPath id="clip-path-43" transform="translate(0 -1.55)"><rect class="cls-2" x="136.16" y="5.44" width="30.34" height="11.65"/></clipPath><clipPath id="clip-path-44" transform="translate(0 -1.55)"><polygon class="cls-1" points="161.84 17.09 192.96 17.09 192.96 5.44 161.84 5.44 161.84 17.09 161.84 17.09"/></clipPath><clipPath id="clip-path-45" transform="translate(0 -1.55)"><rect class="cls-2" x="161.83" y="5.44" width="31.12" height="11.65"/></clipPath><clipPath id="clip-path-46" transform="translate(0 -1.55)"><polygon class="cls-1" points="188.29 17.09 218.63 17.09 218.63 5.44 188.29 5.44 188.29 17.09 188.29 17.09"/></clipPath><clipPath id="clip-path-47" transform="translate(0 -1.55)"><rect class="cls-2" x="188.29" y="5.44" width="30.34" height="11.65"/></clipPath><clipPath id="clip-path-48" transform="translate(0 -1.55)"><polygon class="cls-1" points="216.3 17.09 247.42 17.09 247.42 5.44 216.3 5.44 216.3 17.09 216.3 17.09"/></clipPath><clipPath id="clip-path-49" transform="translate(0 -1.55)"><rect class="cls-2" x="216.3" y="5.44" width="31.12" height="11.65"/></clipPath><clipPath id="clip-path-50" transform="translate(0 -1.55)"><polygon class="cls-1" points="242.75 17.09 273.87 17.09 273.87 5.44 242.75 5.44 242.75 17.09 242.75 17.09"/></clipPath><clipPath id="clip-path-51" transform="translate(0 -1.55)"><rect class="cls-2" x="242.75" y="5.44" width="31.12" height="11.65"/></clipPath><clipPath id="clip-path-52" transform="translate(0 -1.55)"><polygon class="cls-1" points="269.21 17.09 299.55 17.09 299.55 5.44 269.21 5.44 269.21 17.09 269.21 17.09"/></clipPath><clipPath id="clip-path-53" transform="translate(0 -1.55)"><rect class="cls-2" x="269.21" y="5.44" width="30.34" height="11.65"/></clipPath><clipPath id="clip-path-54" transform="translate(0 -1.55)"><polygon class="cls-1" points="295.66 17.09 319 17.09 319 5.44 295.66 5.44 295.66 17.09 295.66 17.09"/></clipPath><clipPath id="clip-path-55" transform="translate(0 -1.55)"><rect class="cls-2" x="295.66" y="5.44" width="23.34" height="11.65"/></clipPath></defs><title>TimechartFull</title><g id="Layer_2" data-name="Layer 2"><g id="Layer_1-2" data-name="Layer 1"><g class="cls-3"><polyline class="cls-4" points="0 0 0 7.77 2.33 7.77 2.33 0 0 0"/><polyline class="cls-4" points="26.45 0 26.45 7.77 28.79 7.77 28.79 0 26.45 0"/><polyline class="cls-4" points="52.91 0 52.91 7.77 55.24 7.77 55.24 0 52.91 0"/><polyline class="cls-4" points="79.36 0 79.36 7.77 81.69 7.77 81.69 0 79.36 0"/><polyline class="cls-4" points="105.81 0 105.81 7.77 108.15 7.77 108.15 0 105.81 0"/><polyline class="cls-4" points="132.27 0 132.27 7.77 134.6 7.77 134.6 0 132.27 0"/><polyline class="cls-4" points="158.72 0 158.72 7.77 161.06 7.77 161.06 0 158.72 0"/><polyline class="cls-4" points="185.18 0 185.18 7.77 187.51 7.77 187.51 0 185.18 0"/><polyline class="cls-4" points="211.63 0 211.63 7.77 213.96 7.77 213.96 0 211.63 0"/><polyline class="cls-4" points="238.08 0 238.08 7.77 240.42 7.77 240.42 0 238.08 0"/><polyline class="cls-4" points="264.54 0 264.54 7.77 266.87 7.77 266.87 0 264.54 0"/><polyline class="cls-4" points="290.99 0 290.99 7.77 293.32 7.77 293.32 0 290.99 0"/><polyline class="cls-4" points="317.44 0 317.44 7.77 319.78 7.77 319.78 0 317.44 0"/><line class="cls-5" x1="14" y1="2.33" x2="14" y2="5.44"/><polyline class="cls-4" points="14.01 2.33 14.01 5.44 14.78 5.44 14.78 2.33 14.01 2.33"/><line class="cls-5" x1="40.46" y1="2.33" x2="40.46" y2="5.44"/><polyline class="cls-4" points="40.46 2.33 40.46 5.44 41.24 5.44 41.24 2.33 40.46 2.33"/><line class="cls-5" x1="66.91" y1="2.33" x2="66.91" y2="5.44"/><polyline class="cls-4" points="66.91 2.33 66.91 5.44 67.69 5.44 67.69 2.33 66.91 2.33"/><line class="cls-5" x1="93.37" y1="2.33" x2="93.37" y2="5.44"/><polyline class="cls-4" points="93.37 2.33 93.37 5.44 94.14 5.44 94.14 2.33 93.37 2.33"/><line class="cls-5" x1="119.82" y1="2.33" x2="119.82" y2="5.44"/><polyline class="cls-4" points="119.82 2.33 119.82 5.44 120.6 5.44 120.6 2.33 119.82 2.33"/><line class="cls-5" x1="146.27" y1="2.33" x2="146.27" y2="5.44"/><polyline class="cls-4" points="146.27 2.33 146.27 5.44 147.05 5.44 147.05 2.33 146.27 2.33"/><line class="cls-5" x1="172.73" y1="2.33" x2="172.73" y2="5.44"/><polyline class="cls-4" points="172.73 2.33 172.73 5.44 173.5 5.44 173.5 2.33 172.73 2.33"/><line class="cls-5" x1="199.18" y1="2.33" x2="199.18" y2="5.44"/><polyline class="cls-4" points="199.18 2.33 199.18 5.44 199.96 5.44 199.96 2.33 199.18 2.33"/><line class="cls-5" x1="225.63" y1="2.33" x2="225.63" y2="5.44"/><polyline class="cls-4" points="225.63 2.33 225.63 5.44 226.41 5.44 226.41 2.33 225.63 2.33"/><line class="cls-5" x1="252.09" y1="2.33" x2="252.09" y2="5.44"/><polyline class="cls-4" points="252.09 2.33 252.09 5.44 252.87 5.44 252.87 2.33 252.09 2.33"/><line class="cls-5" x1="278.54" y1="2.33" x2="278.54" y2="5.44"/><polyline class="cls-4" points="278.54 2.33 278.54 5.44 279.32 5.44 279.32 2.33 278.54 2.33"/><line class="cls-5" x1="305" y1="2.33" x2="305" y2="5.44"/><polyline class="cls-4" points="305 2.33 305 5.44 305.77 5.44 305.77 2.33 305 2.33"/><polyline class="cls-4" points="2.33 5.44 2.33 7.77 319.78 7.77 319.78 5.44 2.33 5.44"/></g><g class="cls-6"><g class="cls-7"><path class="cls-8" d="M179.63,29.79v-.24l3.18-3a6.7,6.7,0,0,0,.88-1,3.16,3.16,0,0,0,.45-.9,3.65,3.65,0,0,0,.13-1,2.11,2.11,0,0,0-.17-.85,1.27,1.27,0,0,0-.64-.61,3.29,3.29,0,0,0-1.37-.23H180v-.17l1.06,0,1.13,0a3.22,3.22,0,0,1,1.41.26,1.58,1.58,0,0,1,.73.69,2.33,2.33,0,0,1,.21,1,3.57,3.57,0,0,1-.15,1.06,3.36,3.36,0,0,1-.49,1,7.1,7.1,0,0,1-.9,1l-3,2.8h4.84v.26Z" transform="translate(0 -1.55)"/><path class="cls-8" d="M185.86,29.79v-.24l3.18-3a6.7,6.7,0,0,0,.88-1,3.16,3.16,0,0,0,.45-.9,3.65,3.65,0,0,0,.13-1,2.11,2.11,0,0,0-.17-.85,1.27,1.27,0,0,0-.64-.61,3.29,3.29,0,0,0-1.37-.23h-2.1v-.17l1.06,0,1.13,0a3.19,3.19,0,0,1,1.41.26,1.58,1.58,0,0,1,.73.69,2.33,2.33,0,0,1,.21,1,3.57,3.57,0,0,1-.15,1.06,3.36,3.36,0,0,1-.49,1,7.1,7.1,0,0,1-.9,1l-3,2.8h4.84v.26Z" transform="translate(0 -1.55)"/></g></g><g class="cls-9"><g class="cls-10"><path class="cls-8" d="M212,29.74a2.35,2.35,0,0,1-.92-.17,1.39,1.39,0,0,1-.69-.55,1.88,1.88,0,0,1-.26-1v-4.5a1.76,1.76,0,0,1,.25-1,1.56,1.56,0,0,1,.68-.59,2.26,2.26,0,0,1,.94-.2h1.46a2.09,2.09,0,0,1,1.07.24,1.31,1.31,0,0,1,.58.63,2.13,2.13,0,0,1,.18.9V28a1.61,1.61,0,0,1-.51,1.36,2.06,2.06,0,0,1-1.32.4Zm0-.24h1.46a1.55,1.55,0,0,0,1.21-.41A1.65,1.65,0,0,0,215,28v-4.5a1.56,1.56,0,0,0-.39-1.14,1.61,1.61,0,0,0-1.18-.39H212a1.69,1.69,0,0,0-1.17.41,1.44,1.44,0,0,0-.44,1.12V28a1.45,1.45,0,0,0,.44,1.14A1.77,1.77,0,0,0,212,29.5Z" transform="translate(0 -1.55)"/></g></g><g class="cls-11"><g class="cls-12"><path class="cls-13" d="M2.69,15.08A1.48,1.48,0,0,1,2.3,15,.82.82,0,0,1,2,14.89a.58.58,0,0,1-.18-.23.75.75,0,0,1-.06-.31v-.59a.65.65,0,0,1,.1-.37.71.71,0,0,1,.24-.22,1.07,1.07,0,0,1,.23-.1.85.85,0,0,1-.28-.18.63.63,0,0,1-.16-.25.87.87,0,0,1,0-.28V11.9A.85.85,0,0,1,2,11.42a.63.63,0,0,1,.29-.27,1.14,1.14,0,0,1,.43-.08h.74a1,1,0,0,1,.41.08.57.57,0,0,1,.26.27,1.26,1.26,0,0,1,.08.48v.46a.78.78,0,0,1,0,.22.82.82,0,0,1-.09.19.67.67,0,0,1-.14.15.72.72,0,0,1-.19.11.64.64,0,0,1,.29.12.61.61,0,0,1,.17.24.79.79,0,0,1,.07.32v.64a.82.82,0,0,1-.1.4.57.57,0,0,1-.29.24,1,1,0,0,1-.45.09Zm0-.12h.73A.82.82,0,0,0,4,14.81a.59.59,0,0,0,.18-.45v-.62A.6.6,0,0,0,4,13.25a.87.87,0,0,0-.58-.14h-.7l-.22,0a.93.93,0,0,0-.26.1.61.61,0,0,0-.2.19.52.52,0,0,0-.09.31v.62a.49.49,0,0,0,.23.46A1,1,0,0,0,2.69,15Zm0-2h.7a.67.67,0,0,0,.39-.1A.54.54,0,0,0,4,12.65a.54.54,0,0,0,.07-.26v-.48a.83.83,0,0,0-.15-.56.62.62,0,0,0-.47-.16H2.69a.7.7,0,0,0-.54.18.76.76,0,0,0-.16.54v.48a.61.61,0,0,0,.17.42A.68.68,0,0,0,2.68,13Z" transform="translate(0 -1.55)"/></g></g><g class="cls-14"><g class="cls-15"><path class="cls-13" d="M25.84,15.23V11.35l-.91.33v-.09l.91-.39H26v4Z" transform="translate(0 -1.55)"/><path class="cls-13" d="M28.41,15.23a1.18,1.18,0,0,1-.46-.09.67.67,0,0,1-.34-.28.87.87,0,0,1-.14-.52V12.09a.94.94,0,0,1,.13-.49.8.8,0,0,1,.34-.29,1.2,1.2,0,0,1,.47-.1h.73a1,1,0,0,1,.53.12.69.69,0,0,1,.3.31,1.13,1.13,0,0,1,.09.45v2.25a.83.83,0,0,1-.26.69,1.06,1.06,0,0,1-.66.2Zm0-.12h.73a.78.78,0,0,0,.61-.21.82.82,0,0,0,.18-.56V12.09a.77.77,0,0,0-.2-.56.81.81,0,0,0-.59-.2h-.73a.83.83,0,0,0-.58.2.72.72,0,0,0-.22.56v2.25a.71.71,0,0,0,.22.57A.83.83,0,0,0,28.41,15.11Z" transform="translate(0 -1.55)"/></g></g><g class="cls-16"><g class="cls-17"><path class="cls-13" d="M52,15V11.07l-.91.34v-.09l.91-.39h.13v4Z" transform="translate(0 -1.55)"/><path class="cls-13" d="M53.5,15v-.12l1.59-1.48a4.49,4.49,0,0,0,.44-.49,1.56,1.56,0,0,0,.22-.45,1.61,1.61,0,0,0,.07-.51,1,1,0,0,0-.09-.42.64.64,0,0,0-.32-.31,1.71,1.71,0,0,0-.68-.11h-1V11l.53,0h.56a1.51,1.51,0,0,1,.7.13.73.73,0,0,1,.37.34,1.18,1.18,0,0,1,.11.5,1.72,1.72,0,0,1-.32,1,4,4,0,0,1-.45.5l-1.49,1.4h2.42V15Z" transform="translate(0 -1.55)"/></g></g><g class="cls-18"><g class="cls-19"><path class="cls-13" d="M78.62,15.08V11.2l-.91.33v-.09l.91-.39h.13v4Z" transform="translate(0 -1.55)"/><path class="cls-13" d="M81.94,15.07V13.92H80l-.06-.12,1.67-2.7h.14L80,13.8h1.9V12.51l0-.3h.08V13.8h.66v.09l-.66,0v1.15Z" transform="translate(0 -1.55)"/></g></g><g class="cls-20"><g class="cls-21"><path class="cls-13" d="M105.18,15V11.12l-.92.33v-.08l.92-.4h.13v4Z" transform="translate(0 -1.55)"/><path class="cls-13" d="M107.8,15a1.11,1.11,0,0,1-.41-.08.89.89,0,0,1-.32-.32,1.84,1.84,0,0,1-.22-.62,5.66,5.66,0,0,1-.07-1,3.75,3.75,0,0,1,.09-.87,1.7,1.7,0,0,1,.26-.61,1,1,0,0,1,.42-.37,1.25,1.25,0,0,1,.56-.12h.48l.5,0v.09h-1a1,1,0,0,0-.83.44,2.33,2.33,0,0,0-.32,1.36l.44,0h.82a2.77,2.77,0,0,1,.6.06.79.79,0,0,1,.41.23.69.69,0,0,1,.15.48v.55a.79.79,0,0,1-.13.49.72.72,0,0,1-.32.25,1.21,1.21,0,0,1-.43.07Zm0-.12h.65a1.14,1.14,0,0,0,.37-.05.54.54,0,0,0,.28-.2.71.71,0,0,0,.1-.42v-.57a.61.61,0,0,0-.12-.41.63.63,0,0,0-.36-.19,2.92,2.92,0,0,0-.54,0h-1.27a6.08,6.08,0,0,0,.06.94,1.81,1.81,0,0,0,.18.58.71.71,0,0,0,.28.29A.75.75,0,0,0,107.8,14.88Z" transform="translate(0 -1.55)"/></g></g><g class="cls-22"><g class="cls-23"><path class="cls-13" d="M131.52,14.9V11l-.91.33v-.09l.91-.39h.13v4Z" transform="translate(0 -1.55)"/><path class="cls-13" d="M134.1,14.9a1.48,1.48,0,0,1-.39-.05.82.82,0,0,1-.28-.14.52.52,0,0,1-.18-.23.75.75,0,0,1-.06-.31v-.59a.65.65,0,0,1,.1-.37.71.71,0,0,1,.24-.22,1.07,1.07,0,0,1,.23-.1.85.85,0,0,1-.28-.18.63.63,0,0,1-.16-.25.66.66,0,0,1,0-.28v-.46a1,1,0,0,1,.1-.48.71.71,0,0,1,.3-.27,1.14,1.14,0,0,1,.43-.08h.74a1,1,0,0,1,.41.08.55.55,0,0,1,.25.27,1.08,1.08,0,0,1,.09.48v.46a.78.78,0,0,1,0,.22.82.82,0,0,1-.09.19.67.67,0,0,1-.14.15.72.72,0,0,1-.19.11.69.69,0,0,1,.29.12.61.61,0,0,1,.17.24.79.79,0,0,1,.07.32v.64a.82.82,0,0,1-.1.4.57.57,0,0,1-.29.24,1,1,0,0,1-.45.09Zm0-.12h.73a.79.79,0,0,0,.52-.15.55.55,0,0,0,.18-.45v-.62a.6.6,0,0,0-.16-.49.87.87,0,0,0-.58-.14h-.7l-.22,0a.82.82,0,0,0-.26.1.76.76,0,0,0-.21.19.59.59,0,0,0-.08.31v.62a.49.49,0,0,0,.23.46A1,1,0,0,0,134.1,14.78Zm0-2h.7a.67.67,0,0,0,.39-.1.61.61,0,0,0,.21-.24.54.54,0,0,0,.07-.26v-.48a.85.85,0,0,0-.15-.56.62.62,0,0,0-.47-.16h-.74a.7.7,0,0,0-.54.18.76.76,0,0,0-.16.54v.48a.61.61,0,0,0,.17.42A.68.68,0,0,0,134.09,12.81Z" transform="translate(0 -1.55)"/></g></g><g class="cls-24"><g class="cls-25"><path class="cls-13" d="M156.24,15.23v-.12l1.6-1.49a3,3,0,0,0,.43-.48,1.37,1.37,0,0,0,.23-.45,2.12,2.12,0,0,0,.06-.52,1,1,0,0,0-.08-.42.63.63,0,0,0-.32-.3,1.56,1.56,0,0,0-.68-.12h-1.06v-.08l.53,0h.57a1.51,1.51,0,0,1,.7.13.79.79,0,0,1,.37.35,1.15,1.15,0,0,1,.11.5,1.84,1.84,0,0,1-.08.53,1.43,1.43,0,0,1-.25.47,3.29,3.29,0,0,1-.45.51l-1.48,1.39h2.42v.14Z" transform="translate(0 -1.55)"/><path class="cls-13" d="M160.48,15.23a1.14,1.14,0,0,1-.46-.09.69.69,0,0,1-.35-.28.87.87,0,0,1-.13-.52V12.09a.85.85,0,0,1,.13-.49.75.75,0,0,1,.34-.29,1.2,1.2,0,0,1,.47-.1h.73a1,1,0,0,1,.53.12.72.72,0,0,1,.29.31,1.13,1.13,0,0,1,.09.45v2.25a.83.83,0,0,1-.25.69,1.08,1.08,0,0,1-.66.2Zm0-.12h.73a.75.75,0,0,0,.6-.21.82.82,0,0,0,.18-.56V12.09a.73.73,0,0,0-.2-.56.78.78,0,0,0-.58-.2h-.73a.86.86,0,0,0-.59.2.72.72,0,0,0-.22.56v2.25a.71.71,0,0,0,.22.57A.86.86,0,0,0,160.48,15.11Z" transform="translate(0 -1.55)"/></g></g><g class="cls-26"><g class="cls-27"><path class="cls-13" d="M183.43,15v-.12L185,13.35a3.64,3.64,0,0,0,.44-.49,1.6,1.6,0,0,0,.23-.45,2,2,0,0,0,.06-.51,1.12,1.12,0,0,0-.08-.42.67.67,0,0,0-.33-.31,1.68,1.68,0,0,0-.68-.11h-1V11l.53,0h.57a1.53,1.53,0,0,1,.7.13.75.75,0,0,1,.36.34,1,1,0,0,1,.11.5,1.79,1.79,0,0,1-.07.53,1.84,1.84,0,0,1-.25.48,2.85,2.85,0,0,1-.45.5l-1.48,1.4h2.42V15Z" transform="translate(0 -1.55)"/><path class="cls-13" d="M186.55,15v-.12l1.59-1.48a4.49,4.49,0,0,0,.44-.49,1.56,1.56,0,0,0,.22-.45,1.61,1.61,0,0,0,.07-.51,1,1,0,0,0-.09-.42.64.64,0,0,0-.32-.31,1.71,1.71,0,0,0-.68-.11h-1.05V11l.53,0h.56a1.51,1.51,0,0,1,.7.13.77.77,0,0,1,.37.34,1.18,1.18,0,0,1,.11.5,1.72,1.72,0,0,1-.32,1,4,4,0,0,1-.45.5l-1.49,1.4h2.42V15Z" transform="translate(0 -1.55)"/></g></g><g class="cls-28"><g class="cls-29"><path class="cls-13" d="M212.35,15.08a1.22,1.22,0,0,1-.46-.09.7.7,0,0,1-.34-.27.91.91,0,0,1-.13-.52V11.94a.8.8,0,0,1,.46-.78,1.24,1.24,0,0,1,.47-.1h.73a1.05,1.05,0,0,1,.54.12.69.69,0,0,1,.29.32,1,1,0,0,1,.09.44V14.2a.81.81,0,0,1-.26.68,1.06,1.06,0,0,1-.66.2Zm0-.12h.73a.76.76,0,0,0,.61-.21.81.81,0,0,0,.18-.55V11.94a.77.77,0,0,0-.2-.56.79.79,0,0,0-.59-.2h-.73a.85.85,0,0,0-.58.2.73.73,0,0,0-.22.56V14.2a.68.68,0,0,0,.22.56A.85.85,0,0,0,212.35,15Z" transform="translate(0 -1.55)"/></g></g><g class="cls-30"><g class="cls-31"><path class="cls-13" d="M237.83,15v-.12l1.59-1.49a3.1,3.1,0,0,0,.44-.48,1.6,1.6,0,0,0,.23-.45,2,2,0,0,0,.06-.51,1,1,0,0,0-.09-.43.63.63,0,0,0-.32-.3,1.52,1.52,0,0,0-.68-.11H238V11l.53,0h.57a1.69,1.69,0,0,1,.7.12.77.77,0,0,1,.36.35,1,1,0,0,1,.11.5,1.79,1.79,0,0,1-.07.53A2.21,2.21,0,0,1,240,13a3.26,3.26,0,0,1-.45.5L238,14.87h2.41V15Z" transform="translate(0 -1.55)"/></g></g><g class="cls-32"><g class="cls-33"><path class="cls-13" d="M265.65,14.89V13.74h-2l-.05-.12,1.67-2.7h.14l-1.67,2.71h1.9v-1.3l.05-.3h.08v1.6h.66v.08l-.66,0v1.15Z" transform="translate(0 -1.55)"/></g></g><g class="cls-34"><g class="cls-35"><path class="cls-13" d="M291.81,15.05a1,1,0,0,1-.41-.09.79.79,0,0,1-.32-.31,1.94,1.94,0,0,1-.21-.62,5.69,5.69,0,0,1-.08-1,3.75,3.75,0,0,1,.09-.87,2.07,2.07,0,0,1,.26-.62,1.34,1.34,0,0,1,.42-.37,1.28,1.28,0,0,1,.56-.12l.49,0,.49,0v.08h-1a1,1,0,0,0-.84.44,2.37,2.37,0,0,0-.32,1.36l.44,0h.83a2.68,2.68,0,0,1,.59.06.73.73,0,0,1,.41.23.69.69,0,0,1,.15.48v.55a.85.85,0,0,1-.12.48.71.71,0,0,1-.33.26,1.21,1.21,0,0,1-.43.07Zm0-.12h.65a1.44,1.44,0,0,0,.37,0,.51.51,0,0,0,.28-.2.74.74,0,0,0,.1-.43v-.56a.66.66,0,0,0-.12-.42.62.62,0,0,0-.36-.18,2.16,2.16,0,0,0-.54-.05h-1.27A5.85,5.85,0,0,0,291,14a2,2,0,0,0,.18.58.74.74,0,0,0,.28.3A.91.91,0,0,0,291.81,14.93Z" transform="translate(0 -1.55)"/></g></g><g class="cls-36"><g class="cls-37"><path class="cls-13" d="M316.24,15a1.48,1.48,0,0,1-.38,0,.87.87,0,0,1-.29-.14.66.66,0,0,1-.17-.23.79.79,0,0,1-.06-.32v-.59a.62.62,0,0,1,.1-.37.8.8,0,0,1,.23-.22.76.76,0,0,1,.23-.09.82.82,0,0,1-.28-.19.78.78,0,0,1-.16-.24,1,1,0,0,1,0-.28v-.46a1,1,0,0,1,.11-.48.63.63,0,0,1,.29-.27,1,1,0,0,1,.43-.09H317a.87.87,0,0,1,.42.09.55.55,0,0,1,.25.27,1.09,1.09,0,0,1,.08.48v.46a.76.76,0,0,1,0,.21.66.66,0,0,1-.09.19.7.7,0,0,1-.14.16.52.52,0,0,1-.18.1.65.65,0,0,1,.28.12.69.69,0,0,1,.18.24.87.87,0,0,1,.06.32v.64a.7.7,0,0,1-.1.4.62.62,0,0,1-.28.25A1.21,1.21,0,0,1,317,15Zm0-.12H317a.85.85,0,0,0,.52-.14.55.55,0,0,0,.18-.45v-.63a.62.62,0,0,0-.17-.49.91.91,0,0,0-.57-.14h-.7L316,13a1.3,1.3,0,0,0-.25.1.67.67,0,0,0-.21.2.56.56,0,0,0-.08.3v.63a.5.5,0,0,0,.22.46A1.09,1.09,0,0,0,316.24,14.83Zm0-2h.7a.69.69,0,0,0,.38-.09.71.71,0,0,0,.22-.24.65.65,0,0,0,.06-.26v-.48a.83.83,0,0,0-.15-.56.61.61,0,0,0-.47-.17h-.74a.66.66,0,0,0-.53.18.79.79,0,0,0-.17.55v.48a.6.6,0,0,0,.17.41A.71.71,0,0,0,316.24,12.86Z" transform="translate(0 -1.55)"/></g></g><g class="cls-38"><g class="cls-39"><path class="cls-13" d="M13.91,15.22l-.48,0-.49,0V15.1h1a1,1,0,0,0,.84-.44,2.37,2.37,0,0,0,.32-1.36l-.44,0h-.83a2.61,2.61,0,0,1-.59-.06.75.75,0,0,1-.41-.23.69.69,0,0,1-.15-.48V12a.81.81,0,0,1,.12-.48.7.7,0,0,1,.33-.26,1.16,1.16,0,0,1,.42-.07h.65a.91.91,0,0,1,.41.09.75.75,0,0,1,.33.31,1.94,1.94,0,0,1,.21.62,5.53,5.53,0,0,1,.08,1,3.6,3.6,0,0,1-.09.86,1.87,1.87,0,0,1-.26.62,1.13,1.13,0,0,1-.42.37A1.2,1.2,0,0,1,13.91,15.22Zm-.06-2h1.27a5.93,5.93,0,0,0-.07-.94,1.81,1.81,0,0,0-.18-.58.71.71,0,0,0-.28-.29.75.75,0,0,0-.37-.08h-.65a1,1,0,0,0-.36,0,.47.47,0,0,0-.28.2.74.74,0,0,0-.11.43v.56A.61.61,0,0,0,13,13a.6.6,0,0,0,.36.19A2.76,2.76,0,0,0,13.85,13.21Z" transform="translate(0 -1.55)"/></g></g><g class="cls-40"><g class="cls-41"><path class="cls-13" d="M39.59,14.94V11.07l-.91.33v-.09l.91-.39h.13v4Z" transform="translate(0 -1.55)"/><path class="cls-13" d="M41.92,14.94V11.07L41,11.4v-.09l.91-.39h.13v4Z" transform="translate(0 -1.55)"/></g></g><g class="cls-42"><g class="cls-43"><path class="cls-13" d="M65.58,15.08V11.2l-.91.33v-.09l.91-.39h.13v4Z" transform="translate(0 -1.55)"/><path class="cls-13" d="M68.35,15.11h-.79l-.59,0V15h1.37a1.7,1.7,0,0,0,.46-.06.65.65,0,0,0,.35-.24.75.75,0,0,0,.14-.49v-.34a.71.71,0,0,0-.13-.43.74.74,0,0,0-.33-.22,1.21,1.21,0,0,0-.37-.07l-1.06,0V13l1.06,0a1,1,0,0,0,.55-.16.56.56,0,0,0,.22-.49V12a.72.72,0,0,0-.24-.57,1,1,0,0,0-.7-.21H67.14V11.1l.49,0h.7a1.26,1.26,0,0,1,.59.12.75.75,0,0,1,.33.33.94.94,0,0,1,.11.45v.38a.75.75,0,0,1-.08.35.79.79,0,0,1-.18.22.71.71,0,0,1-.21.11l-.17.05a.59.59,0,0,1,.19,0,1,1,0,0,1,.23.14.83.83,0,0,1,.21.24.8.8,0,0,1,.08.36v.34a.86.86,0,0,1-.28.68A1.27,1.27,0,0,1,68.35,15.11Z" transform="translate(0 -1.55)"/></g></g><g class="cls-44"><g class="cls-45"><path class="cls-13" d="M92,15V11.12l-.92.33v-.08L92,11h.13v4Z" transform="translate(0 -1.55)"/><path class="cls-13" d="M95,15h-.76l-.62,0V14.9H95a1.46,1.46,0,0,0,.52-.09.94.94,0,0,0,.38-.27.73.73,0,0,0,.14-.45v-.58a.71.71,0,0,0-.22-.55,1,1,0,0,0-.65-.2h-.52a.81.81,0,0,0-.49.14.69.69,0,0,0-.25.45h-.12L93.93,11h2.15v.12h-2L94,13a.63.63,0,0,1,.24-.25.82.82,0,0,1,.5-.13h.51a1.09,1.09,0,0,1,.53.12.77.77,0,0,1,.34.3.83.83,0,0,1,.12.44v.6a.77.77,0,0,1-.16.5,1,1,0,0,1-.42.32A1.5,1.5,0,0,1,95,15Z" transform="translate(0 -1.55)"/></g></g><g class="cls-46"><g class="cls-47"><path class="cls-13" d="M118.72,14.92V11l-.91.34v-.09l.91-.39h.13v4Z" transform="translate(0 -1.55)"/><path class="cls-13" d="M120.76,14.92l1.57-3.85h-2.27v-.13h2.33l.09.13-1.57,3.85Z" transform="translate(0 -1.55)"/></g></g><g class="cls-48"><g class="cls-49"><path class="cls-13" d="M144.87,15V11.14l-.91.34v-.09l.91-.39H145v4Z" transform="translate(0 -1.55)"/><path class="cls-13" d="M147.65,15h-.48l-.5,0v-.09h1a1,1,0,0,0,.83-.44,2.25,2.25,0,0,0,.32-1.36l-.44,0h-.82a2.61,2.61,0,0,1-.59-.06.78.78,0,0,1-.42-.23.7.7,0,0,1-.15-.49v-.54a.86.86,0,0,1,.13-.49.72.72,0,0,1,.32-.25,1.25,1.25,0,0,1,.43-.07H148a.91.91,0,0,1,.41.09.68.68,0,0,1,.32.31,1.65,1.65,0,0,1,.22.62,5.62,5.62,0,0,1,.07,1,3.75,3.75,0,0,1-.09.87,1.68,1.68,0,0,1-.26.62,1,1,0,0,1-.42.37A1.25,1.25,0,0,1,147.65,15Zm-.07-2h1.27a6.08,6.08,0,0,0-.06-.94,1.81,1.81,0,0,0-.18-.58.71.71,0,0,0-.28-.29.75.75,0,0,0-.37-.09h-.65a1.15,1.15,0,0,0-.37.06.48.48,0,0,0-.27.2.71.71,0,0,0-.11.43v.55a.57.57,0,0,0,.13.42A.63.63,0,0,0,147,13,2.92,2.92,0,0,0,147.58,13Z" transform="translate(0 -1.55)"/></g></g><g class="cls-50"><g class="cls-51"><path class="cls-13" d="M170.4,14.94v-.12L172,13.34a3.63,3.63,0,0,0,.44-.48,1.53,1.53,0,0,0,.23-.46,2,2,0,0,0,.06-.51,1,1,0,0,0-.09-.42.56.56,0,0,0-.32-.3,1.5,1.5,0,0,0-.68-.12h-1V11l.53,0h.57a1.53,1.53,0,0,1,.7.13.72.72,0,0,1,.36.35,1,1,0,0,1,.11.49,1.74,1.74,0,0,1-.07.53,1.57,1.57,0,0,1-.25.48,3.29,3.29,0,0,1-.45.51l-1.48,1.39H173v.13Z" transform="translate(0 -1.55)"/><path class="cls-13" d="M174.39,14.94V11.07l-.91.33v-.09l.91-.39h.13v4Z" transform="translate(0 -1.55)"/></g></g><g class="cls-52"><g class="cls-53"><path class="cls-13" d="M196.57,15.08V15l1.59-1.49a3.1,3.1,0,0,0,.44-.48,1.6,1.6,0,0,0,.23-.45,2.1,2.1,0,0,0,.06-.51,1.18,1.18,0,0,0-.08-.43.65.65,0,0,0-.33-.3,1.5,1.5,0,0,0-.68-.12h-1.05V11.1l.53,0h.57a1.65,1.65,0,0,1,.7.13.77.77,0,0,1,.36.35,1,1,0,0,1,.11.5,1.79,1.79,0,0,1-.07.53,1.84,1.84,0,0,1-.25.48,3.81,3.81,0,0,1-.45.5L196.77,15h2.42v.13Z" transform="translate(0 -1.55)"/><path class="cls-13" d="M201,15.11h-.79l-.59,0V15H201a1.7,1.7,0,0,0,.46-.06.65.65,0,0,0,.35-.24.75.75,0,0,0,.14-.49v-.34a.71.71,0,0,0-.13-.43.77.77,0,0,0-.32-.22,1.33,1.33,0,0,0-.38-.07l-1.06,0V13l1.06,0a1,1,0,0,0,.55-.16.54.54,0,0,0,.22-.49V12a.72.72,0,0,0-.24-.57,1,1,0,0,0-.69-.21h-1.16V11.1l.49,0h.7a1.26,1.26,0,0,1,.59.12.75.75,0,0,1,.33.33A.94.94,0,0,1,202,12v.38a.91.91,0,0,1-.07.35.82.82,0,0,1-.19.22.71.71,0,0,1-.21.11l-.17.05a.59.59,0,0,1,.19,0,1,1,0,0,1,.24.14.72.72,0,0,1,.28.6v.34a.83.83,0,0,1-.28.68A1.25,1.25,0,0,1,201,15.11Z" transform="translate(0 -1.55)"/></g></g><g class="cls-54"><g class="cls-55"><path class="cls-13" d="M225.66,15V11.12l-.91.33v-.08l.91-.4h.13v4Z" transform="translate(0 -1.55)"/></g></g><g class="cls-56"><g class="cls-57"><path class="cls-13" d="M252.49,15h-.78l-.6,0v-.09h1.37a1.65,1.65,0,0,0,.46-.06.72.72,0,0,0,.36-.23.79.79,0,0,0,.13-.49V13.7a.6.6,0,0,0-.13-.42.64.64,0,0,0-.32-.22,1.29,1.29,0,0,0-.38-.08l-1,0v-.08l1,0a1,1,0,0,0,.55-.16.56.56,0,0,0,.22-.5V11.8a.72.72,0,0,0-.24-.57,1.07,1.07,0,0,0-.69-.2h-1.15v-.09l.49,0h.69a1.23,1.23,0,0,1,.59.12.76.76,0,0,1,.34.32,1,1,0,0,1,.1.45v.38a.73.73,0,0,1-.07.35.67.67,0,0,1-.18.22,1,1,0,0,1-.22.12l-.16,0,.18.06a.94.94,0,0,1,.24.13.68.68,0,0,1,.2.24.68.68,0,0,1,.08.36v.35a.81.81,0,0,1-.28.67A1.18,1.18,0,0,1,252.49,15Z" transform="translate(0 -1.55)"/></g></g><g class="cls-58"><g class="cls-59"><path class="cls-13" d="M279,15h-.76a5.34,5.34,0,0,1-.62,0v-.09h1.37a1.65,1.65,0,0,0,.51-.08.93.93,0,0,0,.39-.28.73.73,0,0,0,.14-.45v-.57a.69.69,0,0,0-.22-.55.91.91,0,0,0-.65-.2h-.52a.75.75,0,0,0-.49.14.67.67,0,0,0-.25.44h-.12l.12-2.33H280v.12h-2l-.1,1.88a.69.69,0,0,1,.24-.25.9.9,0,0,1,.5-.12h.5a1.27,1.27,0,0,1,.54.11.83.83,0,0,1,.34.3.84.84,0,0,1,.12.45v.59a.8.8,0,0,1-.16.51,1,1,0,0,1-.42.31A1.54,1.54,0,0,1,279,15Z" transform="translate(0 -1.55)"/></g></g><g class="cls-60"><g class="cls-61"><path class="cls-13" d="M304.37,15l1.57-3.85h-2.26V11H306l.09.12L304.53,15Z" transform="translate(0 -1.55)"/></g></g></g></g></svg>